<svg width="32" height="32" viewBox="0 0 32 32" fill="none" xmlns="http://www.w3.org/2000/svg">
<path d="M22.3257 28.8924C25.9523 28.8924 28.8922 25.9525 28.8922 22.3259C28.8922 18.6994 25.9523 15.7595 22.3257 15.7595C18.6992 15.7595 15.7593 18.6994 15.7593 22.3259C15.7593 25.9525 18.6992 28.8924 22.3257 28.8924Z" fill="#EDFF81"/>
<path d="M24.2957 11.8196C26.8343 11.8196 28.8922 9.76168 28.8922 7.2231C28.8922 4.68452 26.8343 2.62659 24.2957 2.62659C21.7571 2.62659 19.6992 4.68452 19.6992 7.2231C19.6992 9.76168 21.7571 11.8196 24.2957 11.8196Z" fill="#253D32"/>
<path d="M7.26253 28.853C9.80111 28.853 11.859 26.7951 11.859 24.2565C11.859 21.7179 9.80111 19.66 7.26253 19.66C4.72394 19.66 2.66602 21.7179 2.66602 24.2565C2.66602 26.7951 4.72394 28.853 7.26253 28.853Z" fill="#253D32"/>
<path d="M9.19291 15.7595C12.8195 15.7595 15.7594 12.8196 15.7594 9.19303C15.7594 5.56648 12.8195 2.62659 9.19291 2.62659C5.56636 2.62659 2.62646 5.56648 2.62646 9.19303C2.62646 12.8196 5.56636 15.7595 9.19291 15.7595Z" fill="#EDFF81"/>
</svg>
