<svg width="51" height="50" viewBox="0 0 51 50" fill="none" xmlns="http://www.w3.org/2000/svg">
<g clip-path="url(#clip0_7_159)">
<path d="M11.9183 25C11.9183 15.1597 18.5153 6.53311 27.8633 3.83809L29.6442 0.397852C28.1824 0.141602 26.6955 0 25.2155 0C11.3657 0 0 11.2686 0 25C0 38.7314 11.3657 50 25.2155 50C26.6971 50 28.1858 49.8584 29.6494 49.6015L29.3334 46.4504C19.2106 44.2667 11.9183 35.3508 11.9183 25Z" fill="#7CAEF8"/>
<path fill-rule="evenodd" clip-rule="evenodd" d="M30.9439 3.15448L37.6264 3.37889C45.4569 7.74413 50.4311 15.9181 50.4311 25C50.4311 26.4634 50.2783 27.9471 50.0184 29.3895L50.0168 29.3886L50.0174 29.3945L49.9878 29.6583C49.6332 31.5331 48.9439 33.4081 48.1165 35.2245C48.1165 35.2245 48.1165 35.2246 48.1165 35.2246C48.0724 35.3265 48.0211 35.4356 47.9697 35.5448C47.9177 35.6554 47.8657 35.766 47.8211 35.8692V35.8983C47.8063 35.9424 47.7841 35.9791 47.7619 36.0158C47.7397 36.0524 47.7176 36.089 47.7028 36.1328C47.3187 36.8945 46.8755 37.6269 46.4322 38.3594C46.1664 38.7695 45.8708 39.1797 45.5457 39.5897H45.5456C45.3388 39.9121 45.1023 40.2344 44.8365 40.5566C44.4523 41.0253 44.0682 41.4648 43.6248 41.9044C41.9111 43.7793 39.8722 45.3614 37.6559 46.6212H30.5345C25.2748 43.6328 21.197 38.799 19.2466 33.1153H19.2465H19.1875L18.9304 32.233C18.8855 32.0895 18.8437 31.946 18.805 31.8025L18.8034 31.797C18.7463 31.6046 18.6936 31.4121 18.6437 31.2196L18.3898 30.3028H18.4192C18.0351 28.5451 17.8283 26.7872 17.8283 25.0001V24.6778L17.8282 24.6778L17.769 24.7071L17.8554 23.8231C17.8561 23.8163 17.8567 23.8095 17.8574 23.8027L17.8578 23.7989C17.8675 23.6643 17.874 23.5329 17.8805 23.4026C17.8937 23.1356 17.9067 22.8732 17.9463 22.5976C17.9591 22.4459 17.9774 22.2996 17.9987 22.1565L18.0646 21.6016L18.0942 21.6016C18.5578 18.1076 19.7492 14.794 21.6253 11.8164H21.4628L22.5516 10.4502C22.7996 10.1094 23.0572 9.77372 23.3243 9.44335L23.7677 8.88671H23.81C25.7699 6.57125 28.2065 4.64418 30.9439 3.15448Z" fill="#5374E9"/>
<path d="M34.6123 45.3907C28.3183 42.8419 23.4721 37.4512 21.6401 30.9766C21.522 30.5665 21.4038 30.1271 21.315 29.7168C20.9604 28.1642 20.7832 26.582 20.7832 25C20.7832 24.2969 20.8127 23.6231 20.9013 22.9198C21.2854 18.8769 22.7629 15.0683 25.2156 11.8164L25.6589 11.2598C27.9637 8.38877 31.0663 6.07412 34.6123 4.60928L37.6263 3.37891C36.7988 2.88096 35.9124 2.44141 34.9964 2.06055C34.9964 2.06055 34.3758 1.82627 34.2872 1.79697C32.8098 1.21104 31.3915 0.703125 29.914 0.439551L29.648 0.380859L29.3819 0.439551C17.5328 2.66592 8.96338 13.0468 8.96338 25C8.96338 36.9532 17.5328 47.3341 29.3819 49.5605L29.648 49.6191L29.914 49.5605C31.3915 49.2969 32.8098 48.7891 34.2872 48.203C34.3758 48.1737 34.4941 48.1152 34.5826 48.0859L35.0851 47.8809C35.9716 47.5293 36.8284 47.0898 37.6559 46.6211L34.6123 45.3907Z" fill="#6C8DFF"/>
</g>
<defs>
<clipPath id="clip0_7_159">
<rect width="50.431" height="50" fill="white"/>
</clipPath>
</defs>
</svg>
