<svg width="51" height="50" viewBox="0 0 51 50" fill="none" xmlns="http://www.w3.org/2000/svg">
<path d="M19.3054 12.5027L25.2153 1.14441e-05H41.336L42.5134 12.5027H19.3054Z" fill="#F8C67C"/>
<path d="M7.91699 12.5027L9.09434 1.14441e-05H25.215V12.5027H7.91699Z" fill="#F8C67C"/>
<path d="M25.2153 50L19.3054 27.9297L25.2153 5.85938H35.1579C37.0025 5.85938 38.7692 6.5376 40.1328 7.76924C41.4965 9.00088 42.3419 10.6819 42.5133 12.5027L46.0442 50H25.2153Z" fill="#F39321"/>
<path d="M10.2977 7.76924C11.6613 6.5376 13.4281 5.85938 15.2726 5.85938H25.2152V50H4.38623L7.91719 12.5027C8.08868 10.6818 8.93409 9.00078 10.2977 7.76924Z" fill="#F3A141"/>
</svg>
